<svg id="Layer_1" data-name="Layer 1" xmlns="http://www.w3.org/2000/svg" viewBox="0 0 1080 1080"><path d="M756.55,399.21H743.92a7.57,7.57,0,0,1-7.57-7.57V379a7.58,7.58,0,0,0-7.58-7.58H716.14a7.57,7.57,0,0,1-7.57-7.57V351.23a7.57,7.57,0,0,0-7.58-7.57H688.36a7.58,7.58,0,0,1-7.57-7.58V323.45a7.57,7.57,0,0,0-7.58-7.57H545.68a7.57,7.57,0,0,0-7.57,7.57v12.63a7.57,7.57,0,0,1-7.58,7.57H490.12a7.57,7.57,0,0,0-7.57,7.58v12.63a7.57,7.57,0,0,1-7.57,7.57H434.56A7.58,7.58,0,0,0,427,379v12.63a7.57,7.57,0,0,1-7.57,7.57H406.79a7.57,7.57,0,0,0-7.58,7.57v12.64a7.57,7.57,0,0,1-7.57,7.57H379a7.57,7.57,0,0,0-7.58,7.57V475a7.57,7.57,0,0,1-7.57,7.57H351.23a7.57,7.57,0,0,0-7.58,7.57v40.41a7.57,7.57,0,0,1-7.57,7.57H323.45a7.59,7.59,0,0,0-7.58,7.58V673.21a7.58,7.58,0,0,0,7.58,7.58h12.63a7.57,7.57,0,0,1,7.57,7.57V701a7.58,7.58,0,0,0,7.58,7.58h12.63a7.57,7.57,0,0,1,7.57,7.57v12.63a7.57,7.57,0,0,0,7.58,7.57h12.63a7.58,7.58,0,0,1,7.57,7.58v12.63a7.57,7.57,0,0,0,7.58,7.57H534.32a7.57,7.57,0,0,0,7.57-7.57V743.92a7.57,7.57,0,0,1,7.58-7.57h40.41a7.57,7.57,0,0,0,7.57-7.58V716.14a7.57,7.57,0,0,1,7.57-7.57h40.42A7.57,7.57,0,0,0,653,701V688.36a7.57,7.57,0,0,1,7.57-7.57h12.63a7.57,7.57,0,0,0,7.57-7.57V660.58a7.58,7.58,0,0,1,7.58-7.57H701a7.57,7.57,0,0,0,7.58-7.57V605a7.58,7.58,0,0,1,7.58-7.58h12.63a7.57,7.57,0,0,0,7.58-7.57V549.47a7.57,7.57,0,0,1,7.57-7.57h12.63a7.59,7.59,0,0,0,7.58-7.58V406.79A7.58,7.58,0,0,0,756.55,399.21ZM704.78,586.09a7.57,7.57,0,0,1-7.57,7.58H684.57a7.57,7.57,0,0,0-7.57,7.57v24h0v16.42a7.57,7.57,0,0,1-7.57,7.57H656.79a7.58,7.58,0,0,0-7.57,7.58v12.63a7.57,7.57,0,0,1-7.57,7.57H601.24a7.58,7.58,0,0,0-7.58,7.58v12.63a7.57,7.57,0,0,1-7.57,7.57h-120a7.57,7.57,0,0,1-7.57-7.57V684.57A7.57,7.57,0,0,0,451,677H438.35a7.57,7.57,0,0,1-7.57-7.57V656.79a7.57,7.57,0,0,0-7.58-7.57H410.57a7.57,7.57,0,0,1-7.57-7.57V629a7.57,7.57,0,0,0-7.57-7.58H382.79a7.57,7.57,0,0,1-7.57-7.57v-120a7.57,7.57,0,0,1,7.57-7.57h12.64a7.57,7.57,0,0,0,7.57-7.58V438.35a7.57,7.57,0,0,1,7.57-7.57H423.2a7.58,7.58,0,0,0,7.58-7.58V410.57a7.57,7.57,0,0,1,7.57-7.57h40.41a7.57,7.57,0,0,0,7.57-7.57V382.79a7.57,7.57,0,0,1,7.58-7.57h120a7.57,7.57,0,0,1,7.57,7.57v12.64A7.57,7.57,0,0,0,629,403h12.63a7.57,7.57,0,0,1,7.57,7.57v12.64a7.57,7.57,0,0,0,7.58,7.57h12.63a7.57,7.57,0,0,1,7.57,7.57V451a7.57,7.57,0,0,0,7.57,7.58h12.64a7.57,7.57,0,0,1,7.57,7.57Z"/></svg>